<mxfile host="app.diagrams.net" modified="2022-10-15T06:39:48.913Z" agent="5.0 (Macintosh; Intel Mac OS X 10_15_7) AppleWebKit/537.36 (KHTML, like Gecko) Chrome/106.0.0.0 Safari/537.36" etag="xgXCFatPa4TJvIIfsjMc" version="20.4.0" type="github">
  <diagram id="A4qu2y3S44wHQtinHozG" name="Page-1">
    <mxGraphModel dx="986" dy="966" grid="1" gridSize="10" guides="1" tooltips="1" connect="1" arrows="1" fold="1" page="1" pageScale="1" pageWidth="1000" pageHeight="700" math="0" shadow="0">
      <root>
        <mxCell id="0" />
        <mxCell id="1" parent="0" />
        <mxCell id="d0bcxILsnnS0WwcF0M_J-1" value="&lt;meta charset=&quot;utf-8&quot;&gt;&lt;b id=&quot;docs-internal-guid-26536dda-7fff-6e54-ca32-1e9dc4e4338e&quot; style=&quot;font-weight:normal;&quot;&gt;&lt;span style=&quot;font-size: 12pt; font-family: &amp;quot;Times New Roman&amp;quot;; color: rgb(0, 0, 0); background-color: transparent; font-weight: 700; font-style: normal; font-variant: normal; text-decoration: none; vertical-align: baseline;&quot;&gt;&lt;span style=&quot;border:none;display:inline-block;overflow:hidden;width:545px;height:301px;&quot;&gt;&lt;img style=&quot;margin-left:0px;margin-top:0px;&quot; height=&quot;301&quot; width=&quot;545&quot; src=&quot;https://lh6.googleusercontent.com/yubXoz2zzu6G8Xa-5XQU2EZ-Ohu4glV7Betz_zonLKwpN7vudnOHv_7zllx6HYS3RlZyoQ7mq3-bF6xSBBucQu_Y3_V-d2a7KApNBvZEuj13wkKpnMrOrPQMYfX1gVtGfNBer4yIB6WUU0eHDuyEDav5uivhcW_sTIhDyT1IAeNSK7zDmiRcY4Gsjw&quot;&gt;&lt;/span&gt;&lt;/span&gt;&lt;/b&gt;" style="text;whiteSpace=wrap;html=1;" vertex="1" parent="1">
          <mxGeometry x="190" y="130" width="560" height="330" as="geometry" />
        </mxCell>
      </root>
    </mxGraphModel>
  </diagram>
</mxfile>
